<?xml version="1.0" standalone="no"?>
<!DOCTYPE svg PUBLIC "-//W3C//DTD SVG 20010904//EN"
 "http://www.w3.org/TR/2001/REC-SVG-20010904/DTD/svg10.dtd">
<svg version="1.0" xmlns="http://www.w3.org/2000/svg"
 width="260.000000pt" height="260.000000pt" viewBox="0 0 260.000000 260.000000"
 preserveAspectRatio="xMidYMid meet">
<metadata>
Created by potrace 1.14, written by Peter Selinger 2001-2017
</metadata>
<g transform="translate(0.000000,260.000000) scale(0.100000,-0.100000)"
fill="#000000" stroke="none">
<path d="M696 2172 c-36 -40 -45 -299 -26 -732 17 -387 57 -872 76 -933 4 -13
14 -17 37 -15 l32 3 33 130 c159 627 301 1053 354 1063 13 2 19 -9 26 -50 70
-363 88 -424 134 -445 32 -16 68 -5 97 29 11 13 68 100 126 193 105 168 162
242 176 228 4 -5 21 -62 39 -128 129 -491 243 -745 334 -745 25 0 46 17 46 38
0 7 -8 12 -17 11 -10 -1 -23 -1 -30 0 -33 3 -138 295 -229 635 -59 219 -75
246 -144 246 -40 0 -107 -77 -235 -270 -58 -88 -109 -160 -114 -160 -10 0 -17
60 -31 270 -21 296 -41 409 -79 444 -11 10 -40 21 -65 23 -65 8 -108 -22 -145
-100 -54 -114 -160 -447 -254 -802 l-24 -90 -7 580 c-6 427 -11 582 -19 587
-22 14 -74 8 -91 -10z"/>
</g>
</svg>
