<svg width="24" height="24" viewBox="0 0 24 24"  xmlns="http://www.w3.org/2000/svg">
<path d="M20.3567 0.137654C20.1629 0.0357345 19.9448 -0.0111073 19.7263 0.00222134C19.5077 0.01555 19.2969 0.0885389 19.1169 0.213252L3.51484 11.013C3.35589 11.124 3.22608 11.2716 3.13644 11.4435C3.04681 11.6153 3 11.8062 3 12C3 12.1938 3.04681 12.3848 3.13644 12.5566C3.22608 12.7284 3.35589 12.8761 3.51484 12.987L19.1169 23.7868C19.297 23.9114 19.5077 23.9843 19.7262 23.9977C19.9448 24.0112 20.1628 23.9646 20.3568 23.863C20.5507 23.7614 20.7132 23.6087 20.8266 23.4214C20.94 23.2341 20.9999 23.0193 21 22.8004V1.20083C21 0.981793 20.9401 0.766921 20.8267 0.579507C20.7133 0.392094 20.5508 0.239288 20.3567 0.137654ZM18.5997 20.5097L6.30642 12.0006L18.5997 3.49159V20.5097Z" />
</svg>
