<svg width="24" height="24" viewBox="0 0 24 24" fill="none" xmlns="http://www.w3.org/2000/svg">
<g clip-path="url(#clip0_16_235)">
<path d="M16.7196 10.8C15.1714 10.8 14.9571 12.3428 14.9571 12.3428H18.2464C18.2464 12.3428 18.2678 10.8 16.7196 10.8ZM9.25712 12.3428H6.34283V15.0214H9.11248C9.53034 15.0107 10.3125 14.8928 10.3125 13.7196C10.3125 12.3268 9.25712 12.3428 9.25712 12.3428Z" fill="#444444"/>
<path d="M12 0C5.37321 0 0 5.37321 0 12C0 18.6268 5.37321 24 12 24C18.6268 24 24 18.6268 24 12C24 5.37321 18.6268 0 12 0ZM14.5286 7.37143H18.6589V8.60357H14.5286V7.37143ZM12.4393 13.8429C12.4393 16.8964 9.25714 16.8 9.25714 16.8H4.05V6.78214H9.25714C10.8429 6.78214 12.0911 7.65536 12.0911 9.45C12.0911 11.2446 10.5643 11.3571 10.5643 11.3571C12.5786 11.3571 12.4393 13.8429 12.4393 13.8429ZM20.1643 13.6768H14.9732C14.9732 15.5357 16.7357 15.4179 16.7357 15.4179C18.4018 15.4179 18.3429 14.3411 18.3429 14.3411H20.1054C20.1054 17.2018 16.6768 17.0036 16.6768 17.0036C12.5679 17.0036 12.8304 13.1732 12.8304 13.1732C12.8304 13.1732 12.825 9.32679 16.6768 9.32679C20.7321 9.33214 20.1643 13.6768 20.1643 13.6768Z" fill="#444444"/>
<path d="M9.96426 9.60536C9.96426 8.56607 9.25712 8.56607 9.25712 8.56607H6.34283V10.8H9.07498C9.54641 10.8 9.96426 10.6446 9.96426 9.60536Z" fill="#444444"/>
</g>
<defs>
<clipPath id="clip0_16_235">
<rect width="24" height="24" fill="white"/>
</clipPath>
</defs>
</svg>
