<svg width="24" height="24" viewBox="0 0 24 24" fill="none" xmlns="http://www.w3.org/2000/svg">
<g clip-path="url(#clip0_11_152)">
<path d="M0.862948 2.13944C0.751556 2.13804 0.641198 2.16031 0.539626 2.20467C0.438055 2.24904 0.347731 2.31443 0.275 2.39625C0.202269 2.47807 0.148893 2.57434 0.118621 2.67829C0.0883496 2.78225 0.0819161 2.89137 0.0997725 2.99799L3.33959 22.0685C3.37995 22.3019 3.50382 22.514 3.68946 22.6677C3.87509 22.8213 4.11061 22.9065 4.35465 22.9085H19.8973C20.0802 22.9108 20.2579 22.8492 20.3979 22.7351C20.538 22.6211 20.6311 22.462 20.6604 22.2869L23.9003 3.00169C23.9181 2.89507 23.9117 2.78596 23.8814 2.68203C23.8511 2.57809 23.7977 2.48184 23.725 2.40004C23.6522 2.31823 23.5619 2.25286 23.4603 2.20851C23.3588 2.16416 23.2484 2.14191 23.137 2.14332L0.862948 2.13944ZM14.5052 15.9225H9.54437L8.20114 9.11795H15.7073L14.5052 15.9225Z" fill="#2684FF"/>
<path d="M22.8502 9.10837H15.6934L14.4923 15.9075H9.53543L3.68256 22.6438C3.86807 22.7993 4.10458 22.8858 4.3498 22.8877H19.8839C20.0667 22.89 20.2442 22.8286 20.3842 22.7146C20.5242 22.6006 20.6173 22.4416 20.6465 22.2667L22.8502 9.10837Z" fill="url(#paint0_linear_11_152)"/>
</g>
<defs>
<linearGradient id="paint0_linear_11_152" x1="24.505" y1="11.0124" x2="16.5749" y2="22.6248" gradientUnits="userSpaceOnUse">
<stop offset="0.18" stop-color="#0052CC"/>
<stop offset="1" stop-color="#2684FF"/>
</linearGradient>
<clipPath id="clip0_11_152">
<rect width="24" height="21" fill="white" transform="translate(0 2)"/>
</clipPath>
</defs>
</svg>
