<svg width="24" height="24" viewBox="0 0 24 24" fill="none" xmlns="http://www.w3.org/2000/svg">
<g clip-path="url(#clip0_11_154)">
<path d="M21 4.71655L19.4513 22.0696L12.4896 24L5.5471 22.0723L4 4.71655H21Z" fill="#264DE4"/>
<path d="M18.1254 20.9647L19.4489 6.13565H12.5V22.5245L18.1254 20.9647Z" fill="#2965F1"/>
<path d="M7.54669 12.5727L7.73744 14.7013H12.5V12.5727H7.54669Z" fill="#EBEBEB"/>
<path d="M12.5 8.26428H12.4926H7.16342L7.35689 10.3929H12.5V8.26428Z" fill="#EBEBEB"/>
<path d="M12.5 20.3156V18.1009L12.4907 18.1034L10.1205 17.4633L9.96895 15.7656H8.81721H7.83255L8.13071 19.1078L12.4902 20.3183L12.5 20.3156Z" fill="#EBEBEB"/>
<path d="M8.00082 0H10.5785V1.07812H9.07875V2.15625H10.5785V3.23438H8.00082V0Z" fill="black"/>
<path d="M11.094 0H13.6717V0.9375H12.1719V1.125H13.6717V3.28125H11.094V2.29688H12.5937V2.10938H11.094V0Z" fill="black"/>
<path d="M14.1872 0H16.7648V0.9375H15.2651V1.125H16.7648V3.28125H14.1872V2.29688H15.6869V2.10938H14.1872V0Z" fill="black"/>
<path d="M15.1133 14.7013L14.8663 17.4619L12.4926 18.1027V20.3173L16.8556 19.1078L16.8876 18.7482L17.3877 13.1443L17.4397 12.5727L17.8239 8.26428H12.4926V10.3929H15.4915L15.2979 12.5727H12.4926V14.7013H15.1133Z" fill="white"/>
</g>
<defs>
<clipPath id="clip0_11_154">
<rect width="17" height="24" fill="white" transform="translate(4)"/>
</clipPath>
</defs>
</svg>
