<svg width="24" height="24" viewBox="0 0 24 24"  xmlns="http://www.w3.org/2000/svg">
<path d="M20.7223 13.2194C20.0337 13.4023 19.3242 13.4948 18.6117 13.4947C16.4422 13.4947 14.4048 12.6516 12.8745 11.1218C11.8695 10.1115 11.1471 8.85546 10.7791 7.47899C10.4111 6.10252 10.4104 4.65367 10.7771 3.27687C10.8229 3.10472 10.8226 2.92357 10.7763 2.75157C10.7299 2.57957 10.6391 2.42278 10.513 2.29693C10.3869 2.17108 10.2299 2.08059 10.0578 2.03454C9.88566 1.98848 9.70443 1.98849 9.5323 2.03455C7.80804 2.49388 6.23492 3.39838 4.97075 4.65733C1.00975 8.61689 1.00975 15.0621 4.97075 19.0237C5.91225 19.9701 7.03217 20.7204 8.2657 21.2313C9.49922 21.7422 10.8219 22.0035 12.1571 22C13.4919 22.0037 14.8142 21.7427 16.0474 21.2319C17.2806 20.7212 18.4002 19.971 19.3413 19.0247C20.6017 17.7608 21.5069 16.1874 21.9661 14.4628C22.0117 14.2907 22.0113 14.1097 21.965 13.9378C21.9186 13.7659 21.828 13.6092 21.7021 13.4833C21.5762 13.3575 21.4194 13.2669 21.2474 13.2205C21.0755 13.1742 20.8944 13.1739 20.7223 13.2194ZM17.9055 17.5884C17.1525 18.3452 16.2568 18.9453 15.2702 19.3538C14.2837 19.7624 13.2259 19.9712 12.1581 19.9684C11.0899 19.971 10.0317 19.762 9.04488 19.3533C8.05801 18.9446 7.16199 18.3444 6.40862 17.5874C3.24023 14.4191 3.24023 9.26293 6.40862 6.09468C7.02086 5.48334 7.7277 4.97467 8.50191 4.58825C8.38859 6.05004 8.5923 7.51905 9.09914 8.8949C9.60598 10.2707 10.404 11.521 11.4386 12.5602C12.4759 13.5977 13.7263 14.3976 15.1032 14.9047C16.4801 15.4117 17.9508 15.6138 19.4135 15.4969C19.0248 16.2695 18.5158 16.9755 17.9055 17.5884Z" />
</svg>
