<svg width="24" height="24" viewBox="0 0 24 24" fill="none" xmlns="http://www.w3.org/2000/svg">
<g clip-path="url(#clip0_11_146)">
<path d="M23.5046 9.85918C22.9642 9.47001 21.7257 9.32407 20.7574 9.51866C20.6448 8.54572 20.1269 7.69441 19.2262 6.94038L18.7082 6.55121L18.3479 7.11065C17.8976 7.84035 17.6724 8.86193 17.74 9.83486C17.7625 10.1754 17.8751 10.7835 18.2128 11.3186C17.8976 11.5132 17.2446 11.7564 16.3889 11.7564H0.10826L0.0632234 11.951C-0.0944035 12.9239 -0.0944036 15.9643 1.75208 18.2994C3.14821 20.075 5.21988 20.975 7.94457 20.975C13.8443 20.975 18.2128 18.0318 20.262 12.705C21.0726 12.7293 22.8065 12.705 23.6847 10.8808C23.7073 10.8321 23.7523 10.7348 23.9099 10.37L24 10.1754L23.5046 9.85918ZM13.1237 3H10.6467V5.43233H13.1237V3ZM13.1237 5.9188H10.6467V8.35114H13.1237V5.9188ZM10.1964 5.9188H7.71939V8.35114H10.1964V5.9188ZM7.26903 5.9188H4.79203V8.35114H7.26903V5.9188ZM4.34167 8.8376H1.86467V11.2699H4.34167V8.8376ZM7.26903 8.8376H4.79203V11.2699H7.26903V8.8376ZM10.1964 8.8376H7.71939V11.2699H10.1964V8.8376ZM13.1237 8.8376H10.6467V11.2699H13.1237V8.8376ZM16.0511 8.8376H13.5741V11.2699H16.0511V8.8376Z" fill="#2396ED"/>
</g>
<defs>
<clipPath id="clip0_11_146">
<rect width="24" height="18" fill="white" transform="translate(0 3)"/>
</clipPath>
</defs>
</svg>
