<svg width="24" height="24" viewBox="0 0 24 24" xmlns="http://www.w3.org/2000/svg">
<path d="M12 0C5.37482 0 0 5.37482 0 12C0 18.6252 5.37482 24 12 24C18.6252 24 24 18.6311 24 12C24 5.36893 18.6252 0 12 0ZM19.6189 5.53125C21.0074 7.16348 21.8338 9.19915 21.9761 11.3373C19.8134 11.2248 17.2259 11.2248 15.1511 11.4187C14.8886 10.7561 14.6196 10.1062 14.3261 9.48107C16.7186 8.44393 18.5625 7.08107 19.6189 5.53125ZM12 1.99982C14.3309 1.99582 16.5892 2.8099 18.3814 4.30018C17.2939 5.67482 15.5877 6.87161 13.4625 7.77482C12.3 5.625 10.9623 3.77518 9.53571 2.31857C10.3408 2.11074 11.1685 2.00367 12 1.99982ZM7.47482 3.09375C8.91857 4.53107 10.275 6.36161 11.4627 8.50446C9.20625 9.19393 6.61875 9.58929 3.85714 9.58929C3.33214 9.58929 2.82 9.57054 2.31375 9.53893C2.6659 8.15926 3.30845 6.87063 4.19848 5.75916C5.0885 4.64769 6.2055 3.73898 7.47482 3.09375ZM2.01857 11.5248C2.5875 11.55 3.16232 11.5623 3.74357 11.5564C6.89357 11.5189 9.825 11.025 12.3439 10.2171C12.5814 10.7111 12.8064 11.2173 13.0189 11.7359C12.7146 11.8025 12.4157 11.8921 12.1248 12.0038C8.68125 13.4502 5.96893 15.7811 4.5 18.6C2.8893 16.7787 2.00008 14.4314 1.99982 12C1.99982 11.8393 2.00625 11.6813 2.01857 11.5248ZM12 22.0002C9.77829 22.0029 7.61971 21.2613 5.86875 19.8938C7.2 17.2564 9.57482 15.0723 12.5689 13.7186C12.8502 13.5873 13.2252 13.4812 13.6564 13.3875C14.0136 14.3746 14.3323 15.3996 14.6127 16.4625C15.0314 18.0667 15.3398 19.6976 15.5357 21.3439C14.407 21.7764 13.2087 21.9988 12 22.0002ZM17.4064 20.4064C17.2109 18.743 16.8996 17.0953 16.4748 15.4752C16.2605 14.6625 16.0189 13.875 15.7564 13.1062C17.7188 12.9455 20.0689 12.9686 21.9375 13.1062C21.7728 14.5835 21.2806 16.0054 20.4968 17.2683C19.7129 18.5312 18.6572 19.6033 17.4064 20.4064Z" />
</svg>
