<svg width="29" height="24" viewBox="0 0 29 24" fill="none" xmlns="http://www.w3.org/2000/svg">
<g clip-path="url(#clip0_16_231)">
<path d="M24.4688 0C25.6705 0 26.8231 0.486262 27.6728 1.35181C28.5226 2.21737 29 3.39131 29 4.61538V19.3846C29 20.6087 28.5226 21.7826 27.6728 22.6482C26.8231 23.5137 25.6705 24 24.4688 24H4.53125C3.32949 24 2.17695 23.5137 1.32717 22.6482C0.477398 21.7826 0 20.6087 0 19.3846V4.61538C0 3.39131 0.477398 2.21737 1.32717 1.35181C2.17695 0.486262 3.32949 0 4.53125 0H24.4688ZM27.1875 7.31262L14.9604 14.6418C14.8448 14.711 14.7156 14.7531 14.582 14.7653C14.4485 14.7774 14.314 14.7592 14.1883 14.712L14.0396 14.6418L1.8125 7.31631V19.3846C1.8125 20.1191 2.09894 20.8234 2.6088 21.3428C3.11867 21.8621 3.81019 22.1538 4.53125 22.1538H24.4688C25.1898 22.1538 25.8813 21.8621 26.3912 21.3428C26.9011 20.8234 27.1875 20.1191 27.1875 19.3846V7.31262ZM24.4688 1.84615H4.53125C3.81019 1.84615 3.11867 2.13791 2.6088 2.65724C2.09894 3.17657 1.8125 3.88094 1.8125 4.61538V5.17292L14.5 12.7754L27.1875 5.16923V4.61538C27.1875 3.88094 26.9011 3.17657 26.3912 2.65724C25.8813 2.13791 25.1898 1.84615 24.4688 1.84615Z" fill="#444444"/>
</g>
<defs>
<clipPath id="clip0_16_231">
<rect width="29" height="24" fill="white"/>
</clipPath>
</defs>
</svg>
