<svg width="24" height="24" viewBox="0 0 24 24" fill="none" xmlns="http://www.w3.org/2000/svg">
<g clip-path="url(#clip0_11_5)">
<rect width="24" height="24" rx="5" fill="#1D1D1D"/>
<g clip-path="url(#clip1_11_5)">
<path d="M9.2733 20.9032C10.7785 20.9032 12 19.6315 12 18.0645V15.2258H9.2733C7.76814 15.2258 6.54657 16.4976 6.54657 18.0645C6.54657 19.6315 7.76814 20.9032 9.2733 20.9032Z" fill="#0ACF83"/>
<path d="M6.54657 12.3871C6.54657 10.8201 7.76814 9.5484 9.2733 9.5484H12V15.2258H9.2733C7.76814 15.2258 6.54657 13.9541 6.54657 12.3871Z" fill="#A259FF"/>
<path d="M6.54663 6.70968C6.54663 5.14271 7.7682 3.87097 9.27336 3.87097H12.0001V9.54839H9.27336C7.7682 9.54839 6.54663 8.27665 6.54663 6.70968Z" fill="#F24E1E"/>
<path d="M12.0001 3.87097H14.7268C16.2319 3.87097 17.4535 5.14271 17.4535 6.70968C17.4535 8.27665 16.2319 9.54839 14.7268 9.54839H12.0001V3.87097Z" fill="#FF7262"/>
<path d="M17.4535 12.3871C17.4535 13.9541 16.2319 15.2258 14.7268 15.2258C13.2216 15.2258 12.0001 13.9541 12.0001 12.3871C12.0001 10.8201 13.2216 9.5484 14.7268 9.5484C16.2319 9.5484 17.4535 10.8201 17.4535 12.3871Z" fill="#1ABCFE"/>
</g>
</g>
<defs>
<clipPath id="clip0_11_5">
<rect width="24" height="24" fill="white"/>
</clipPath>
<clipPath id="clip1_11_5">
<rect width="10.9091" height="17.0323" fill="white" transform="translate(6.54553 3.87097)"/>
</clipPath>
</defs>
</svg>
