<svg width="24" height="24" viewBox="0 0 24 24" fill="none" xmlns="http://www.w3.org/2000/svg">
<g clip-path="url(#clip0_11_143)">
<g clip-path="url(#clip1_11_143)">
<path d="M22.9386 10.9875L13.0122 1.06169C12.4407 0.489895 11.5136 0.489895 10.9415 1.06169L8.8805 3.12321L11.495 5.73773C12.1027 5.53237 12.7994 5.67018 13.2836 6.15464C13.7708 6.64206 13.9074 7.34474 13.6968 7.95464L16.2171 10.4746C16.827 10.2643 17.5302 10.4004 18.0171 10.8881C18.6975 11.5685 18.6975 12.671 18.0171 13.3519C17.3362 14.0326 16.2337 14.0326 15.5525 13.3519C15.0408 12.8398 14.9142 12.0876 15.1737 11.4572L12.8232 9.10688V15.2917C12.989 15.3739 13.1456 15.4832 13.2836 15.6213C13.964 16.3017 13.964 17.4042 13.2836 18.0854C12.6032 18.7655 11.5 18.7655 10.82 18.0854C10.1396 17.404 10.1396 16.3014 10.82 15.6213C10.9883 15.4533 11.183 15.3261 11.3909 15.241V8.99851C11.183 8.9134 10.9888 8.78746 10.82 8.61822C10.3047 8.10309 10.1807 7.34647 10.445 6.71356L7.86755 4.13567L1.06096 10.9415C0.489162 11.5138 0.489162 12.4409 1.06096 13.0127L10.9878 22.9388C11.5593 23.5106 12.4862 23.5106 13.0585 22.9388L22.9386 13.0587C23.5104 12.4869 23.5104 11.5593 22.9386 10.9875Z" fill="#F05133"/>
</g>
</g>
<defs>
<clipPath id="clip0_11_143">
<rect width="24" height="24" fill="white"/>
</clipPath>
<clipPath id="clip1_11_143">
<rect width="24" height="24" fill="white"/>
</clipPath>
</defs>
</svg>
