<svg width="24" height="24" viewBox="0 0 24 24" fill="none" xmlns="http://www.w3.org/2000/svg">
<g clip-path="url(#clip0_11_155)">
<g clip-path="url(#clip1_11_155)">
<path d="M5.08124 0H6.15936V1.06875H7.15311V0H8.23124V3.23438H7.15311V2.15625H6.16874V3.23438H5.08124M9.65624 1.07812H8.70468V0H11.6906V1.07812H10.7344V3.23438H9.65624M12.1641 0H13.2937L13.9875 1.13906L14.6812 0H15.8109V3.23438H14.7328V1.63125L13.9781 2.79375L13.2234 1.63125V3.23438H12.1641M16.3453 0H17.4234V2.16563H18.9515V3.23438H16.3453" fill="black"/>
<path d="M5.04376 22.0781L3.49689 4.71564H20.5031L18.9563 22.0688L11.986 24" fill="#E44D26"/>
<path d="M12 22.5234V6.14062H18.9516L17.625 20.9531" fill="#F16529"/>
<path d="M6.65625 8.26407H12V10.3922H8.99063L9.1875 12.5719H12V14.6953H7.2375M7.33125 15.7641H9.46875L9.61875 17.4656L12 18.1031V20.325L7.63125 19.1063" fill="#EBEBEB"/>
<path d="M17.325 8.26407H11.9906V10.3922H17.1281M16.9359 12.5719H11.9906V14.7H14.6156L14.3672 17.4656L11.9906 18.1031V20.3156L16.35 19.1063" fill="white"/>
</g>
</g>
<defs>
<clipPath id="clip0_11_155">
<rect width="24" height="24" fill="white"/>
</clipPath>
<clipPath id="clip1_11_155">
<rect width="24" height="24" fill="white"/>
</clipPath>
</defs>
</svg>
