<svg width="24" height="24" viewBox="0 0 24 24" fill="none" xmlns="http://www.w3.org/2000/svg">
<g clip-path="url(#clip0_11_151)">
<path d="M20.8194 1.57095H10.5002C10.5002 2.80639 10.991 3.99123 11.8646 4.86481C12.7382 5.7384 13.923 6.22917 15.1584 6.22917H17.0593V8.06453C17.061 10.6349 19.1442 12.7181 21.7145 12.7198V2.46614C21.7145 1.97188 21.3139 1.57095 20.8194 1.57095Z" fill="#2684FF"/>
<path d="M15.7134 6.71259H5.39438C5.39597 9.28291 7.47917 11.3662 10.0496 11.3679H11.9505V13.2091C11.9538 15.7794 14.0384 17.8613 16.6087 17.8613V7.60794C16.6087 7.11351 16.2079 6.71267 15.7134 6.71267V6.71259Z" fill="url(#paint0_linear_11_151)"/>
<path d="M10.6046 11.8513H0.285461C0.285461 14.424 2.37109 16.5095 4.94368 16.5095H6.85055V18.3448C6.85223 20.9128 8.93182 22.9951 11.4999 23V12.7466C11.4999 12.2522 11.099 11.8513 10.6046 11.8513Z" fill="url(#paint1_linear_11_151)"/>
</g>
<defs>
<linearGradient id="paint0_linear_11_151" x1="16.3879" y1="6.73053" x2="12.025" y2="11.2831" gradientUnits="userSpaceOnUse">
<stop offset="0.18" stop-color="#0052CC"/>
<stop offset="1" stop-color="#2684FF"/>
</linearGradient>
<linearGradient id="paint1_linear_11_151" x1="11.5744" y1="11.902" x2="6.52764" y2="16.8674" gradientUnits="userSpaceOnUse">
<stop offset="0.18" stop-color="#0052CC"/>
<stop offset="1" stop-color="#2684FF"/>
</linearGradient>
<clipPath id="clip0_11_151">
<rect width="24" height="24" fill="white"/>
</clipPath>
</defs>
</svg>
