<svg width="24" height="24" viewBox="0 0 24 24" fill="none" xmlns="http://www.w3.org/2000/svg">
<g clip-path="url(#clip0_11_145)">
<path d="M13.6753 7.95749L12.8539 9.38926L10.045 4.49142L1.42222 19.525H7.26045C7.26045 20.3157 7.8972 20.9567 8.68267 20.9567H1.42222C0.914162 20.9567 0.444737 20.6837 0.190748 20.2407C-0.0632408 19.7978 -0.063215 19.252 0.190817 18.8091L8.81363 3.77554C9.06768 3.33253 9.53721 3.05962 10.0453 3.05962C10.5535 3.05962 11.023 3.33253 11.277 3.77554L13.6753 7.95749Z" fill="#00C58E"/>
<path d="M19.8998 18.8091L14.4966 9.38926L13.6753 7.95749L12.8539 9.38926L7.45125 18.8091C7.19722 19.252 7.1972 19.7978 7.45119 20.2407C7.70517 20.6837 8.1746 20.9567 8.68266 20.9567H18.6667C19.1748 20.9567 19.6444 20.684 19.8986 20.241C20.1527 19.798 20.1527 19.2521 19.8987 18.8091H19.8998ZM8.68266 19.525L13.6753 10.821L18.6667 19.525H8.68266L8.68266 19.525Z" fill="#2F495E"/>
<path d="M23.763 20.2409C23.509 20.6838 23.0396 20.9568 22.5316 20.9568H18.6667C19.4521 20.9568 20.0889 20.3157 20.0889 19.525H22.5286L15.6059 7.45459L14.4966 9.38926L13.6753 7.9575L14.3745 6.73871C14.6286 6.29569 15.0981 6.02278 15.6062 6.02278C16.1144 6.02278 16.5839 6.29569 16.8379 6.73871L23.763 18.8091C24.017 19.2521 24.017 19.7979 23.763 20.2409Z" fill="#108775"/>
</g>
<defs>
<clipPath id="clip0_11_145">
<rect width="24" height="18" fill="white" transform="translate(0 3)"/>
</clipPath>
</defs>
</svg>
