<svg width="24" height="24" viewBox="0 0 24 24" fill="none" xmlns="http://www.w3.org/2000/svg">
<g clip-path="url(#clip0_11_157)">
<rect width="24" height="24" rx="5" fill="#001D34"/>
<g clip-path="url(#clip1_11_157)">
<path d="M8.38023 16.5991V12.8975C8.5657 12.9168 8.78443 12.9268 9.02316 12.9268C10.4781 12.9268 11.6545 12.5182 12.4256 11.7448C13.0572 11.1061 13.4052 10.1544 13.4052 9.06531C13.4052 8.0075 12.9896 7.05103 12.2657 6.44166C11.554 5.83572 10.5082 5.54111 9.06855 5.54111C7.82144 5.54111 6.76762 5.61748 5.9361 5.76816C5.86799 5.78041 5.81818 5.84326 5.81818 5.91679V16.5991C5.81818 16.6824 5.88159 16.7499 5.95984 16.7499H8.23856C8.31682 16.7499 8.38023 16.6824 8.38023 16.5991ZM8.38023 10.7078V7.75602C8.51934 7.7276 8.78063 7.69002 9.18914 7.69002C10.2404 7.69002 10.8432 8.21471 10.8432 9.12949C10.8432 10.1415 10.1573 10.7457 9.00809 10.7457C8.73241 10.7457 8.53606 10.7341 8.38023 10.7078Z" fill="#2FA3F7"/>
<path d="M17.5345 11.6537C16.5956 11.304 16.4372 11.1374 16.4372 10.8965C16.4372 10.4686 16.8967 10.4048 17.1708 10.4048C17.7526 10.4048 18.3596 10.6371 18.7025 10.8361C18.7409 10.8583 18.7866 10.8605 18.8268 10.842C18.8667 10.8234 18.8966 10.7862 18.9075 10.7412L19.315 9.05468C19.3316 8.98585 19.3008 8.91401 19.2411 8.88228C18.8181 8.65716 18.0323 8.41653 17.0952 8.41653C15.2437 8.41653 13.9506 9.53545 13.9506 11.135C13.9381 11.9153 14.3086 12.9838 16.145 13.6418C17.0371 13.9584 17.1347 14.1229 17.1347 14.3984C17.1347 14.524 17.1347 14.9062 16.2955 14.9062C15.6669 14.9062 14.8181 14.609 14.3922 14.3337C14.3536 14.3087 14.3063 14.3048 14.2646 14.3232C14.223 14.3414 14.192 14.3797 14.1811 14.4263L13.7738 16.1773C13.7582 16.2441 13.7871 16.3135 13.8439 16.3462C14.4671 16.7048 15.3608 16.9105 16.2955 16.9105C18.3562 16.9105 19.6363 15.8802 19.6363 14.2196C19.62 12.9715 18.9715 12.1801 17.5345 11.6537Z" fill="#2FA3F7"/>
</g>
</g>
<defs>
<clipPath id="clip0_11_157">
<rect width="24" height="24" fill="white"/>
</clipPath>
<clipPath id="clip1_11_157">
<rect width="13.8182" height="14.7097" fill="white" transform="translate(5.81818 3.87097)"/>
</clipPath>
</defs>
</svg>
