<svg width="24" height="24" viewBox="0 0 24 24" fill="none" xmlns="http://www.w3.org/2000/svg">
<g clip-path="url(#clip0_11_148)">
<path d="M20.6527 12.3457C19.8159 12.3501 19.0886 12.5518 18.4797 12.8499C18.2562 12.4071 18.0328 12.0126 17.9934 11.7232C17.9495 11.3857 17.897 11.1796 17.9495 10.7763C18.0021 10.373 18.2387 9.79872 18.2343 9.75488C18.2299 9.71104 18.1817 9.50501 17.6998 9.50062C17.2179 9.49624 16.8017 9.59268 16.7535 9.71981C16.7053 9.84694 16.6133 10.1363 16.552 10.4344C16.4687 10.8728 15.5881 12.4378 15.0843 13.2576C14.9222 12.9375 14.782 12.657 14.7513 12.4334C14.7075 12.0958 14.6549 11.8898 14.7075 11.4865C14.7601 11.0832 14.9966 10.5089 14.9923 10.4651C14.9879 10.4212 14.9397 10.2152 14.4578 10.2108C13.9758 10.2064 13.5596 10.3029 13.5114 10.43C13.4632 10.5571 13.4107 10.8552 13.3099 11.1446C13.2091 11.4339 12.0394 14.0467 11.7327 14.7218C11.575 15.0681 11.4391 15.3443 11.3428 15.5328C11.3428 15.5328 11.3384 15.5459 11.3252 15.5678C11.242 15.73 11.1938 15.8177 11.1938 15.8177C11.1938 15.8177 11.1938 15.8177 11.1938 15.8221C11.1281 15.9405 11.058 16.0501 11.0229 16.0501C10.9966 16.0501 10.9485 15.7344 11.0317 15.3048C11.2069 14.3974 11.6231 12.9858 11.6188 12.9375C11.6188 12.9112 11.6976 12.6657 11.3471 12.5386C11.0054 12.4115 10.8827 12.6219 10.8521 12.6219C10.8214 12.6219 10.7995 12.6964 10.7995 12.6964C10.7995 12.6964 11.1807 11.1095 10.0722 11.1095C9.37999 11.1095 8.4249 11.8679 7.95174 12.5518C7.65382 12.714 7.01855 13.0603 6.33947 13.4329C6.08098 13.5776 5.81373 13.7222 5.564 13.8581C5.54648 13.8406 5.52895 13.8187 5.51143 13.8012C4.17079 12.3676 1.69106 11.355 1.7962 9.43048C1.83563 8.72907 2.0766 6.88786 6.55853 4.65211C10.2475 2.83282 13.1828 3.33696 13.6911 4.45483C14.4183 6.05055 12.1182 9.01402 8.30661 9.44363C6.85206 9.60583 6.08974 9.0447 5.89697 8.83428C5.69544 8.61509 5.66477 8.60194 5.59029 8.64577C5.46762 8.71153 5.54648 8.9088 5.59029 9.02278C5.7042 9.32088 6.17298 9.84694 6.96597 10.1056C7.66696 10.3335 9.37123 10.4607 11.4348 9.66282C13.7436 8.76852 15.5487 6.28289 15.0185 4.20057C14.4884 2.08757 10.9835 1.39054 7.66696 2.56979C5.69544 3.2712 3.55743 4.37593 2.01964 5.81382C0.192699 7.52351 -0.0964575 9.00963 0.0218338 9.63214C0.446806 11.8416 3.49171 13.2795 4.70968 14.3448C4.64834 14.3798 4.59139 14.4105 4.54319 14.4368C3.93421 14.7393 1.6122 15.9536 1.03388 17.2381C0.376708 18.6935 1.13903 19.7369 1.64286 19.8771C3.20694 20.3111 4.81482 19.5308 5.67791 18.242C6.541 16.9531 6.43585 15.2785 6.03717 14.5113C6.03279 14.5026 6.02841 14.4938 6.01964 14.485C6.17737 14.393 6.33947 14.2965 6.49719 14.2045C6.80825 14.0203 7.11493 13.8494 7.3778 13.7091C7.22884 14.1168 7.11932 14.6034 7.06674 15.3048C7.00102 16.129 7.33837 17.1986 7.78087 17.6195C7.97802 17.8036 8.21023 17.808 8.35918 17.808C8.87616 17.808 9.10836 17.3784 9.36685 16.8698C9.68229 16.2473 9.96707 15.524 9.96707 15.524C9.96707 15.524 9.6122 17.4792 10.5761 17.4792C10.9265 17.4792 11.2814 17.0233 11.4391 16.7909C11.4391 16.7953 11.4391 16.7953 11.4391 16.7953C11.4391 16.7953 11.4479 16.7822 11.4654 16.7515C11.5005 16.6945 11.5224 16.6594 11.5224 16.6594C11.5224 16.6594 11.5224 16.655 11.5224 16.6506C11.6626 16.4052 11.978 15.8484 12.4468 14.9234C13.0514 13.731 13.6341 12.2405 13.6341 12.2405C13.6341 12.2405 13.6867 12.6044 13.8663 13.2093C13.9715 13.5644 14.1905 13.9546 14.3658 14.3316C14.2256 14.5289 14.1379 14.6385 14.1379 14.6385C14.1379 14.6385 14.1379 14.6385 14.1423 14.6429C14.0284 14.7919 13.9057 14.9541 13.7699 15.1119C13.2924 15.6818 12.7228 16.335 12.644 16.5235C12.552 16.7471 12.5739 16.9093 12.7491 17.0408C12.8762 17.1373 13.104 17.1504 13.3362 17.1372C13.7655 17.1066 14.0678 17.0014 14.2168 16.9356C14.449 16.8523 14.7206 16.7252 14.9747 16.5367C15.4435 16.1903 15.7283 15.695 15.702 15.0418C15.6889 14.6823 15.5706 14.3228 15.426 13.9853C15.4698 13.9239 15.5092 13.8625 15.5531 13.8012C16.2935 12.7184 16.8674 11.5303 16.8674 11.5303C16.8674 11.5303 16.92 11.8942 17.0996 12.4992C17.1872 12.806 17.3669 13.1392 17.5246 13.4636C16.828 14.0291 16.3986 14.6867 16.2453 15.1163C15.9693 15.9142 16.1839 16.2736 16.5914 16.3569C16.7754 16.3964 17.0383 16.3087 17.231 16.2254C17.4764 16.1465 17.7655 16.0106 18.0415 15.809C18.5103 15.4626 18.9616 14.9804 18.9353 14.3272C18.9222 14.0291 18.8433 13.7354 18.7338 13.4505C19.3252 13.205 20.0876 13.0691 21.0602 13.183C23.1456 13.4285 23.5574 14.7305 23.4786 15.2785C23.3997 15.8265 22.9616 16.1246 22.817 16.2166C22.6724 16.3087 22.6242 16.3394 22.6374 16.4052C22.6549 16.5016 22.725 16.4972 22.8477 16.4797C23.0186 16.449 23.943 16.0369 23.9824 15.0286C24.0481 13.7398 22.8214 12.3326 20.6527 12.3457ZM4.5651 17.7729C3.87287 18.5269 2.90902 18.8119 2.49281 18.5708C2.04593 18.3121 2.22118 17.1986 3.07112 16.4008C3.5881 15.9142 4.25404 15.4626 4.69653 15.1864C4.7973 15.1251 4.94626 15.0374 5.12589 14.9278C5.15656 14.9103 5.17408 14.9015 5.17408 14.9015C5.20913 14.8796 5.24418 14.8577 5.27923 14.8357C5.59029 15.9755 5.29237 16.9794 4.5651 17.7729ZM9.60343 14.3448C9.36247 14.9322 8.85864 16.4358 8.55196 16.3525C8.28909 16.2824 8.12698 15.1426 8.49938 14.016C8.68777 13.4505 9.08646 12.7753 9.31866 12.5123C9.69544 12.0915 10.1116 11.9512 10.2124 12.1222C10.3395 12.3457 9.75239 13.9765 9.60343 14.3448ZM13.7612 16.335C13.6604 16.3876 13.564 16.4227 13.5202 16.3964C13.4895 16.3788 13.564 16.3087 13.564 16.3087C13.564 16.3087 14.0854 15.7476 14.2913 15.4933C14.4096 15.3443 14.5498 15.1689 14.6987 14.9716C14.6987 14.9892 14.6987 15.0111 14.6987 15.0286C14.6987 15.6994 14.0503 16.1509 13.7612 16.335ZM16.9682 15.6029C16.8937 15.5503 16.9068 15.375 17.1566 14.827C17.2529 14.6122 17.4808 14.2527 17.8707 13.9064C17.9145 14.0467 17.9452 14.1825 17.9408 14.3097C17.9364 15.1558 17.3318 15.4714 16.9682 15.6029Z" fill="#CD6799"/>
</g>
<defs>
<clipPath id="clip0_11_148">
<rect width="24" height="18" fill="white" transform="translate(0 2)"/>
</clipPath>
</defs>
</svg>
