<svg width="24" height="24" viewBox="0 0 24 24"  xmlns="http://www.w3.org/2000/svg">
<path d="M19.7165 16.0075C19.4161 16.0081 19.125 15.9035 18.8938 15.7118L12.004 9.95321L5.10135 15.5062C4.96987 15.613 4.81858 15.6927 4.65618 15.7408C4.49378 15.7889 4.32348 15.8045 4.15505 15.7865C3.98663 15.7686 3.82341 15.7176 3.67477 15.6364C3.52612 15.5552 3.395 15.4454 3.28892 15.3134C3.18215 15.1819 3.10241 15.0306 3.0543 14.8682C3.00618 14.7058 2.99064 14.5355 3.00856 14.3671C3.02647 14.1986 3.0775 14.0354 3.1587 13.8868C3.23991 13.7381 3.34969 13.607 3.48173 13.5009L11.1942 7.29242C11.4242 7.10335 11.7127 7 12.0104 7C12.3082 7 12.5967 7.10335 12.8267 7.29242L20.5391 13.7195C20.6693 13.8274 20.7769 13.9599 20.8557 14.1094C20.9346 14.259 20.9832 14.4226 20.9987 14.591C21.0142 14.7594 20.9964 14.9291 20.9462 15.0906C20.896 15.252 20.8144 15.402 20.7062 15.5319C20.5866 15.6793 20.4358 15.7985 20.2647 15.8807C20.0935 15.9629 19.9063 16.0062 19.7165 16.0075Z" />
</svg>
