<svg width="24" height="24" viewBox="0 0 24 24" fill="none" xmlns="http://www.w3.org/2000/svg">
<g clip-path="url(#clip0_11_141)">
<g clip-path="url(#clip1_11_141)">
<g clip-path="url(#clip2_11_141)">
<path fill-rule="evenodd" clip-rule="evenodd" d="M15.9401 16.3134V8.55609C15.9401 8.42344 15.8874 8.29623 15.7936 8.20244C15.6998 8.10864 15.5725 8.05595 15.4399 8.05595H7.69168V0.0487213H23.4382C23.5039 0.0487084 23.569 0.0616378 23.6297 0.0867713C23.6904 0.111905 23.7456 0.14875 23.792 0.195202C23.8385 0.241655 23.8753 0.296805 23.9005 0.357503C23.9256 0.418201 23.9386 0.483258 23.9386 0.548958V16.3134H15.9401Z" fill="#8E75FF"/>
<path opacity="0.405" fill-rule="evenodd" clip-rule="evenodd" d="M7.69168 0.0487213V8.05595H0.296609C0.247152 8.05594 0.198809 8.04127 0.157688 8.01379C0.116566 7.98631 0.0845118 7.94727 0.0655746 7.90158C0.0466375 7.85589 0.0416671 7.80561 0.0512917 7.7571C0.0609163 7.70859 0.0847039 7.66402 0.119649 7.62902L7.69168 0.0487213ZM15.9401 23.7162V16.3134H23.9386L16.3671 23.893C16.3322 23.9279 16.2876 23.9518 16.2391 23.9614C16.1906 23.9711 16.1403 23.9661 16.0946 23.9472C16.0489 23.9283 16.0098 23.8962 15.9823 23.8551C15.9548 23.814 15.9401 23.7657 15.9401 23.7162ZM7.69168 8.05595H15.6899C15.7563 8.05595 15.8199 8.0823 15.8668 8.12919C15.9137 8.17609 15.9401 8.23969 15.9401 8.30602V16.3134H8.19191C8.12622 16.3134 8.06117 16.3004 8.00048 16.2753C7.93979 16.2501 7.88464 16.2133 7.83819 16.1668C7.79174 16.1204 7.75489 16.0652 7.72975 16.0046C7.70462 15.9439 7.69168 15.8788 7.69168 15.8131V8.05595Z" fill="#8E75FF"/>
</g>
</g>
</g>
<defs>
<clipPath id="clip0_11_141">
<rect width="24" height="24" fill="white"/>
</clipPath>
<clipPath id="clip1_11_141">
<rect width="24" height="24" fill="white"/>
</clipPath>
<clipPath id="clip2_11_141">
<rect width="24" height="24" fill="white"/>
</clipPath>
</defs>
</svg>
