<svg width="24" height="24" viewBox="0 0 24 24" fill="none" xmlns="http://www.w3.org/2000/svg">
<g clip-path="url(#clip0_11_147)">
<path d="M11.748 5.43598C7.87199 5.55917 6.71999 8.32798 6.45599 9.82798C6.79999 9.27197 7.88399 8.05201 9.47999 8.05201C11.34 8.05201 12.756 10.128 13.62 10.776C14.6697 11.5633 16.7789 12.6028 19.548 11.76C21.756 11.088 22.78 8.74397 23.004 7.63198C21.936 9.08398 20.316 9.95612 18.312 8.92798C16.932 8.21998 15.9 5.30401 11.748 5.43598Z" fill="#07B6D5"/>
<path d="M6.26398 12.024C2.38798 12.1472 1.23598 14.916 0.971985 16.416C1.31598 15.86 2.39998 14.64 3.99598 14.64C5.85598 14.64 7.27198 16.716 8.13598 17.364C9.18567 18.1513 11.2949 19.1908 14.064 18.348C16.272 17.676 17.296 15.332 17.52 14.22C16.452 15.672 14.832 16.5441 12.828 15.516C11.448 14.808 10.416 11.892 6.26398 12.024Z" fill="#07B6D5"/>
</g>
<defs>
<clipPath id="clip0_11_147">
<rect width="24" height="24" fill="white"/>
</clipPath>
</defs>
</svg>
