<svg width="24" height="24" viewBox="0 0 24 24" fill="none" xmlns="http://www.w3.org/2000/svg">
<g clip-path="url(#clip0_11_150)">
<g clip-path="url(#clip1_11_150)">
<path d="M21.6562 0H2.34375C1.04933 0 0 1.04933 0 2.34375V21.6562C0 22.9507 1.04933 24 2.34375 24H21.6562C22.9507 24 24 22.9507 24 21.6562V2.34375C24 1.04933 22.9507 0 21.6562 0Z" fill="#3178C6"/>
<path fill-rule="evenodd" clip-rule="evenodd" d="M14.8594 19.0781V21.4219C15.2391 21.6188 15.7031 21.7641 16.2188 21.8625C16.7344 21.9609 17.2969 22.0078 17.8594 22.0078C18.4219 22.0078 18.9375 21.9563 19.4531 21.8484C19.9688 21.7406 20.3906 21.5625 20.7656 21.3328C21.1453 21.0844 21.4688 20.7703 21.6562 20.3484C21.8438 19.9266 21.9891 19.4578 21.9891 18.8484C21.9891 18.4219 21.9234 18.0516 21.7969 17.7234C21.6703 17.3953 21.4875 17.1141 21.2344 16.8797C20.9953 16.6313 20.7188 16.4109 20.3906 16.2234C20.0625 16.0359 19.6875 15.8391 19.2656 15.6609C18.9563 15.5344 18.7031 15.4125 18.4219 15.2906C18.1781 15.1688 17.9672 15.0469 17.8125 14.925C17.6391 14.7984 17.5078 14.6672 17.4141 14.5313C17.3203 14.3906 17.2734 14.2359 17.2734 14.0625C17.2734 13.9031 17.3152 13.7578 17.4 13.6266C17.4848 13.4953 17.6016 13.3875 17.7516 13.2938C17.9016 13.2 18.0891 13.1297 18.3141 13.0781C18.5344 13.0266 18.7781 13.0031 19.0641 13.0031C19.2609 13.0031 19.4672 13.0177 19.6734 13.0472C19.8891 13.0767 20.1094 13.1222 20.3297 13.1831C20.55 13.2441 20.7656 13.3191 20.9859 13.4128C21.1922 13.5066 21.3844 13.6144 21.5484 13.7363V11.5331C21.1922 11.3972 20.7984 11.2941 20.3766 11.2284C19.9547 11.1628 19.4859 11.13 18.9234 11.13C18.3609 11.13 17.8453 11.1909 17.3297 11.3081C16.8141 11.4253 16.3922 11.6128 16.0172 11.8706C15.6375 12.1238 15.3609 12.4331 15.1266 12.855C14.9063 13.2488 14.7984 13.6988 14.7984 14.2613C14.7984 14.9644 15 15.5738 15.4078 16.0425C15.8109 16.5581 16.4391 16.9331 17.2359 17.3081C17.5594 17.4394 17.8453 17.5706 18.1266 17.6972C18.4078 17.8238 18.6422 17.955 18.8297 18.0909C19.0313 18.2269 19.1906 18.3769 19.2984 18.5363C19.4156 18.6956 19.4766 18.8831 19.4766 19.0988C19.4766 19.2488 19.44 19.3894 19.3688 19.5206C19.2975 19.6519 19.1859 19.7644 19.0359 19.8581C18.8859 19.9519 18.7031 20.0269 18.4734 20.0831C18.2531 20.1347 18.0047 20.1628 17.6766 20.1628C17.1609 20.1628 16.6453 20.0738 16.1766 19.8956C15.6609 19.7175 15.1922 19.4503 14.7703 19.0988L14.8594 19.0781ZM10.9219 13.3125H13.9219V11.3906H5.53125V13.3125H8.53125V21.8906H10.9219V13.3125Z" fill="white"/>
</g>
</g>
<defs>
<clipPath id="clip0_11_150">
<rect width="24" height="24" fill="white"/>
</clipPath>
<clipPath id="clip1_11_150">
<rect width="24" height="24" fill="white"/>
</clipPath>
</defs>
</svg>
