<svg width="24" height="24" viewBox="0 0 24 24" fill="none" xmlns="http://www.w3.org/2000/svg">
<g clip-path="url(#clip0_11_153)">
<g clip-path="url(#clip1_11_153)">
<mask id="mask0_11_153" style="mask-type:alpha" maskUnits="userSpaceOnUse" x="0" y="0" width="24" height="24">
<path fill-rule="evenodd" clip-rule="evenodd" d="M17.0189 23.8361C17.3969 23.9834 17.8279 23.9739 18.2094 23.7903L23.1506 21.4127C23.6698 21.1629 24 20.6374 24 20.0609V3.93919C24 3.36271 23.6698 2.83723 23.1506 2.58739L18.2094 0.209701C17.7087 -0.0312311 17.1227 0.0277823 16.6832 0.347268C16.6205 0.392906 16.5607 0.443863 16.5046 0.500018L7.04522 9.12996L2.92493 6.0023C2.54136 5.71116 2.00487 5.73502 1.64864 6.05906L0.327127 7.26118C-0.108612 7.65754 -0.109112 8.34305 0.326047 8.74008L3.8993 12L0.326047 15.26C-0.109112 15.657 -0.108612 16.3425 0.327127 16.7389L1.64864 17.941C2.00487 18.265 2.54136 18.2889 2.92493 17.9977L7.04522 14.8701L16.5046 23.5C16.6542 23.6497 16.8299 23.7625 17.0189 23.8361ZM18.0036 6.55174L10.8262 12L18.0036 17.4483V6.55174Z" fill="white"/>
</mask>
<g mask="url(#mask0_11_153)">
<path d="M23.1507 2.59104L18.2057 0.210085C17.6333 -0.0655106 16.9492 0.0507415 16.5 0.499954L0.311659 15.2599C-0.123766 15.6569 -0.123266 16.3424 0.312739 16.7388L1.63505 17.9409C1.9915 18.265 2.52833 18.2888 2.91211 17.9977L22.4066 3.20873C23.0606 2.71258 24 3.17904 24 3.99996V3.94255C24 3.36631 23.6699 2.84103 23.1507 2.59104Z" fill="#0065A9"/>
<g filter="url(#filter0_d_11_153)">
<path d="M23.1507 21.4089L18.2057 23.7899C17.6333 24.0655 16.9492 23.9492 16.5 23.5L0.311659 8.74006C-0.123766 8.34306 -0.123266 7.65752 0.312739 7.26116L1.63505 6.05905C1.9915 5.735 2.52833 5.71114 2.91211 6.00229L22.4066 20.7912C23.0606 21.2874 24 20.8209 24 20V20.0574C24 20.6336 23.6699 21.1589 23.1507 21.4089Z" fill="#007ACC"/>
</g>
<g filter="url(#filter1_d_11_153)">
<path d="M18.2059 23.7903C17.6333 24.0658 16.9493 23.9492 16.5 23.5C17.0535 24.0535 18 23.6615 18 22.8787V1.12131C18 0.338493 17.0535 -0.0535465 16.5 0.499988C16.9493 0.0507354 17.6333 -0.065681 18.2059 0.209671L23.1501 2.58737C23.6696 2.83721 24 3.36269 24 3.93917V20.0609C24 20.6374 23.6696 21.1629 23.1501 21.4127L18.2059 23.7903Z" fill="#1F9CF0"/>
</g>
<g style="mix-blend-mode:overlay" opacity="0.25">
<path fill-rule="evenodd" clip-rule="evenodd" d="M17.0043 23.8361C17.3823 23.9834 17.8133 23.974 18.1948 23.7904L23.136 21.4128C23.6552 21.1629 23.9854 20.6375 23.9854 20.0609V3.93924C23.9854 3.36273 23.6552 2.83725 23.136 2.58741L18.1948 0.209732C17.6941 -0.0312004 17.1081 0.0278129 16.6686 0.347296C16.6059 0.392937 16.5461 0.443894 16.49 0.500049L7.03063 9.12998L2.91034 6.00235C2.52679 5.71118 1.99028 5.73506 1.63405 6.05908L0.31254 7.2612C-0.1232 7.65758 -0.123699 8.34309 0.31146 8.7401L3.88471 12L0.31146 15.26C-0.123699 15.657 -0.1232 16.3425 0.31254 16.7389L1.63405 17.941C1.99028 18.2651 2.52679 18.2889 2.91034 17.9978L7.03063 14.8701L16.49 23.5001C16.6396 23.6498 16.8153 23.7625 17.0043 23.8361ZM17.9891 6.55178L10.8116 12L17.9891 17.4483V6.55178Z" fill="url(#paint0_linear_11_153)"/>
</g>
</g>
</g>
</g>
<defs>
<filter id="filter0_d_11_153" x="-8.34793" y="-2.53436" width="40.6813" height="34.8056" filterUnits="userSpaceOnUse" color-interpolation-filters="sRGB">
<feFlood flood-opacity="0" result="BackgroundImageFix"/>
<feColorMatrix in="SourceAlpha" type="matrix" values="0 0 0 0 0 0 0 0 0 0 0 0 0 0 0 0 0 0 127 0" result="hardAlpha"/>
<feOffset/>
<feGaussianBlur stdDeviation="4.16667"/>
<feColorMatrix type="matrix" values="0 0 0 0 0 0 0 0 0 0 0 0 0 0 0 0 0 0 0.25 0"/>
<feBlend mode="overlay" in2="BackgroundImageFix" result="effect1_dropShadow_11_153"/>
<feBlend mode="normal" in="SourceGraphic" in2="effect1_dropShadow_11_153" result="shape"/>
</filter>
<filter id="filter1_d_11_153" x="8.16666" y="-8.27148" width="24.1667" height="40.543" filterUnits="userSpaceOnUse" color-interpolation-filters="sRGB">
<feFlood flood-opacity="0" result="BackgroundImageFix"/>
<feColorMatrix in="SourceAlpha" type="matrix" values="0 0 0 0 0 0 0 0 0 0 0 0 0 0 0 0 0 0 127 0" result="hardAlpha"/>
<feOffset/>
<feGaussianBlur stdDeviation="4.16667"/>
<feColorMatrix type="matrix" values="0 0 0 0 0 0 0 0 0 0 0 0 0 0 0 0 0 0 0.25 0"/>
<feBlend mode="overlay" in2="BackgroundImageFix" result="effect1_dropShadow_11_153"/>
<feBlend mode="normal" in="SourceGraphic" in2="effect1_dropShadow_11_153" result="shape"/>
</filter>
<linearGradient id="paint0_linear_11_153" x1="11.9854" y1="0.06192" x2="11.9854" y2="23.9382" gradientUnits="userSpaceOnUse">
<stop stop-color="white"/>
<stop offset="1" stop-color="white" stop-opacity="0"/>
</linearGradient>
<clipPath id="clip0_11_153">
<rect width="24" height="24" fill="white"/>
</clipPath>
<clipPath id="clip1_11_153">
<rect width="24" height="24" fill="white"/>
</clipPath>
</defs>
</svg>
