<svg width="24" height="24" viewBox="0 0 24 24" fill="none" xmlns="http://www.w3.org/2000/svg">
<g clip-path="url(#clip0_11_156)">
<g clip-path="url(#clip1_11_156)">
<path d="M4.25 0H19.75C22.1 0 24 1.94872 24 4.35897V19.641C24 22.0513 22.1 24 19.75 24H4.25C1.9 24 0 22.0513 0 19.641V4.35897C0 1.94872 1.9 0 4.25 0Z" fill="#470137"/>
<path d="M12.62 6.30769L9.62002 11.3846L12.82 16.7692C12.84 16.8102 12.85 16.8513 12.84 16.8923C12.83 16.9333 12.79 16.9026 12.73 16.9128H10.44C10.28 16.9128 10.17 16.9026 10.1 16.8C9.89002 16.3692 9.67002 15.9487 9.46002 15.5179C9.25002 15.0974 9.02002 14.6667 8.78002 14.2256C8.54002 13.7846 8.30002 13.3436 8.06002 12.8923H8.04002C7.83002 13.3333 7.60002 13.7744 7.37002 14.2154C7.14002 14.6564 6.91002 15.0974 6.69002 15.5282C6.46002 15.959 6.23002 16.4 6.00002 16.8205C5.96002 16.9231 5.88002 16.9333 5.77002 16.9333H3.57002C3.53002 16.9333 3.50002 16.9538 3.50002 16.9026C3.49002 16.8615 3.50002 16.8205 3.52002 16.7897L6.63002 11.559L3.60002 6.29743C3.57002 6.2564 3.56002 6.21538 3.58002 6.19486C3.60002 6.1641 3.64002 6.15384 3.68002 6.15384H5.95002C6.00002 6.15384 6.05002 6.1641 6.09002 6.17435C6.13002 6.19486 6.16002 6.22563 6.19002 6.26666C6.38002 6.70769 6.60002 7.14871 6.83002 7.58974C7.07002 8.03076 7.30002 8.46153 7.55002 8.8923C7.79002 9.32307 8.01002 9.75384 8.22002 10.1949H8.24002C8.45002 9.74358 8.67002 9.30256 8.89002 8.87179C9.11002 8.44102 9.34002 8.01025 9.57002 7.57948C9.80002 7.14871 10.02 6.70769 10.24 6.28717C10.25 6.24615 10.27 6.20512 10.3 6.18461C10.34 6.1641 10.38 6.15384 10.43 6.1641H12.54C12.59 6.15384 12.64 6.18461 12.65 6.23589C12.66 6.24615 12.64 6.28717 12.62 6.30769Z" fill="#FF61F6"/>
<path d="M17.24 17.1282C16.5 17.1385 15.76 16.9846 15.09 16.6667C14.46 16.3692 13.94 15.8769 13.58 15.2718C13.21 14.6462 13.03 13.8667 13.03 12.9333C13.02 12.1744 13.21 11.4256 13.58 10.7692C13.96 10.1026 14.51 9.54872 15.17 9.17949C15.87 8.77949 16.71 8.58462 17.7 8.58462C17.75 8.58462 17.82 8.58462 17.91 8.59488C18 8.60513 18.1 8.60513 18.22 8.61539V5.37436C18.22 5.30257 18.25 5.26154 18.32 5.26154H20.35C20.4 5.25129 20.44 5.29231 20.45 5.33334C20.45 5.34359 20.45 5.35385 20.45 5.35385V15.118C20.45 15.3026 20.46 15.5077 20.47 15.7333C20.49 15.9487 20.5 16.1538 20.51 16.3282C20.51 16.4 20.48 16.4615 20.41 16.4923C19.89 16.718 19.34 16.8821 18.78 16.9846C18.27 17.0769 17.76 17.1282 17.24 17.1282ZM18.22 15.0769V10.5641C18.13 10.5436 18.04 10.5231 17.95 10.5128C17.84 10.5026 17.73 10.4923 17.62 10.4923C17.23 10.4923 16.84 10.5744 16.49 10.759C16.15 10.9333 15.86 11.1897 15.64 11.518C15.42 11.8462 15.31 12.2872 15.31 12.8205C15.3 13.1795 15.36 13.5385 15.48 13.8769C15.58 14.1539 15.73 14.4 15.93 14.6051C16.12 14.7897 16.35 14.9333 16.61 15.0154C16.88 15.1077 17.16 15.1487 17.44 15.1487C17.59 15.1487 17.73 15.1385 17.86 15.1282C17.99 15.1385 18.1 15.118 18.22 15.0769Z" fill="#FF61F6"/>
</g>
</g>
<defs>
<clipPath id="clip0_11_156">
<rect width="24" height="24" fill="white"/>
</clipPath>
<clipPath id="clip1_11_156">
<rect width="24" height="24" fill="white"/>
</clipPath>
</defs>
</svg>
